<?xml version="1.0" encoding="utf-8"?>
<!-- Generator: Adobe Illustrator 27.5.0, SVG Export Plug-In . SVG Version: 6.00 Build 0)  -->
<svg version="1.1" xmlns="http://www.w3.org/2000/svg" xmlns:xlink="http://www.w3.org/1999/xlink" x="0px" y="0px"
	 viewBox="0 0 1250 500" style="enable-background:new 0 0 1250 500;" xml:space="preserve">
<g id="BACKGROUND">
	<rect id="XMLID_1_" style="fill:#FFFFFF;" width="1250" height="500"/>
</g>
<g id="OBJECTS">
	<path style="fill:#E1E3F6;" d="M1069.646,471.281l-901.322,0c0,0-116.562-39.049-89.699-97.208
		c26.497-57.367,135.733-82.163,163.01-170.832C277.418,86.916,405.723,27.331,558.976,46.826
		c153.253,19.495,198.796,88.038,282.626,64.709c105.245-29.288,205.964-18.631,273.618,36.837
		C1193.836,212.827,1242.064,398.538,1069.646,471.281z"/>
	<g>
		<polygon style="fill:#33948E;" points="274.097,471.281 222.475,471.281 214.066,439.741 205.543,439.741 197.426,471.281 
			141.543,471.281 151.814,413.234 154.42,398.541 268.895,393.988 270.494,417.749 		"/>
		<polygon style="opacity:0.2;fill:#5E386C;" points="270.494,417.749 151.814,413.234 154.42,398.541 268.895,393.988 		"/>
		<g>
			<g>
				<path style="fill:#3CA89D;" d="M170.322,281.951c0,0-16.176-35.961-16.56-68.636s14.992-41.919,24.987-35.182
					c-3.075-29.014,66.503-47.466,87.645-8.256c21.142,39.21-9.358,115.394-9.358,115.394L170.322,281.951z"/>
				<path style="fill:#309188;" d="M189.336,167.602c0,0,17.654-22.184,48.958-14.792
					C214.383,153.656,189.336,167.602,189.336,167.602z"/>
				<path style="fill:#309188;" d="M212.39,162.764c0,0,30.272-11.1,49.289,11.669C241.95,161.674,212.39,162.764,212.39,162.764z"
					/>
				<path style="fill:#309188;" d="M187.781,240.993v41.627c0,0,55.74,8.827,56.028,7.962c0.288-0.865,11.093-55.335,11.093-55.335"
					/>
				<g>
					<path style="fill:#FFBB9B;" d="M208.667,256.296v14.362l-14.518,3.289c0,0,8.097,16.166,29.527,18.41
						c22.368,2.343,29.527-20.723,29.527-20.723l-18.37-0.976l-3.919-16.595L208.667,256.296z"/>
					<path style="fill:#FFA97F;" d="M208.667,265.449c0,0,13.99,4.92,25.312,1.592c-0.804-3.406-2.185-9.251-2.185-9.251h-23.127
						V265.449z"/>
					<path style="fill:#FFBB9B;" d="M180.381,231.447c0,0-0.586,35.331,46.092,28.18s33.145-50.195,33.145-50.195
						s7.822,2.55,9.108-9.137c1.163-10.563-8.333-19.718-15.226-6.418c-16.769-15.358-47.506-19.251-69.032-12.679
						c9.575,29.117-5.837,37.972-5.837,37.972s-9.673-9.84-13.392-0.113C162.817,225.39,168.013,245.254,180.381,231.447z"/>
					<path style="fill:#FFA97F;" d="M262.566,191.252c-2.568-0.425-5.387,1.773-6.143,4.199c-0.694,2.227-0.337,5.139,1.133,6.984
						c1.083,1.359,2.671,2.662,4.529,2.619c1.444-0.033,2.778-0.595,2.904-2.144c0.078-0.961-0.147-2.43-0.956-3.073
						c-0.657-0.522-1.588-0.729-2.319-1.137c-0.946-0.527-1.697-1.582-1.66-2.695c0.054-1.638,1.51-0.511,2.585-0.759
						C264.529,194.811,264.287,191.188,262.566,191.252z"/>
					<path style="fill:#FFA97F;" d="M167.643,219.372c1.814-1.45,3.502-2.157,5.27-0.337c1.053,1.084,1.322,2.735,1.296,4.167
						c-0.041,2.282,0.213,5.036-1.887,6.531c-1.666,1.186-4.101,0.407-3.875-1.93c0.162-1.672,2.116-2.118,3.023-3.302
						c-1.082-0.967-2.923-0.746-3.622-2.229C167.303,221.113,167.788,219.954,167.643,219.372z"/>
					<path style="fill:#49224A;" d="M209.858,213.075c0.363,2.16-1.093,4.205-3.253,4.568c-2.16,0.363-4.205-1.093-4.568-3.253
						c-0.363-2.16,1.093-4.205,3.253-4.568C207.449,209.459,209.495,210.915,209.858,213.075z"/>
					<path style="fill:#49224A;" d="M238.444,208.204c0.363,2.16-1.093,4.205-3.253,4.568c-2.16,0.363-4.205-1.093-4.568-3.253
						c-0.363-2.16,1.093-4.205,3.253-4.568C236.035,204.588,238.081,206.044,238.444,208.204z"/>
					<path style="fill:#FF79AC;" d="M189.91,222.693c-4.153,4.14-1.939,11.559,4.137,11.978c3.867,0.267,8.053-2.285,8.028-6.486
						c-0.015-2.593-1.54-6.133-4.009-7.317C196.019,219.887,192.281,220.68,189.91,222.693z"/>
					<path style="fill:#FF79AC;" d="M245.429,211.069c-10.391,8.484,5.469,17.03,8.941,7.646c0.964-2.604,0.684-5.462-1.379-7.501
						C250.234,208.49,248.227,209.917,245.429,211.069z"/>
				</g>
				<path style="fill:#D6897D;" d="M223.63,226.599c-0.27,0-0.493-0.216-0.499-0.487c-0.007-0.276,0.211-0.505,0.487-0.513
					c0.048-0.001,4.865-0.15,6.23-2.378c0.509-0.831,0.459-1.899-0.151-3.173c-2.855-5.974-9.676-21.786-9.744-21.945
					c-0.109-0.253,0.007-0.547,0.261-0.657c0.252-0.109,0.547,0.006,0.657,0.261c0.069,0.159,6.882,15.954,9.729,21.909
					c0.765,1.601,0.799,2.989,0.1,4.128c-1.649,2.689-6.836,2.849-7.057,2.854C223.639,226.599,223.634,226.599,223.63,226.599z"/>
				<path style="fill:#FFFFFF;" d="M216.817,231.609l10.931,0.947C227.749,232.555,224.457,226.996,216.817,231.609z"/>
				<path style="fill:#309188;" d="M197.58,203.24c-0.613,0-1.202-0.343-1.488-0.932c-0.399-0.821-0.056-1.81,0.765-2.209
					l7.581-3.681c0.822-0.397,1.811-0.055,2.209,0.765c0.399,0.821,0.056,1.81-0.765,2.209l-7.581,3.681
					C198.068,203.186,197.822,203.24,197.58,203.24z"/>
				<path style="fill:#309188;" d="M237.727,196.701c-0.098,0-0.197-0.009-0.296-0.027l-8.38-1.514
					c-0.898-0.162-1.495-1.022-1.333-1.921c0.162-0.899,1.024-1.495,1.921-1.333l8.38,1.514c0.898,0.162,1.495,1.022,1.333,1.921
					C239.207,196.14,238.511,196.701,237.727,196.701z"/>
				<path style="fill:#3CA89D;" d="M185.429,177.293c0,0,14.983,32.387-6.81,38.895c11.653,1.059,24.27-18.161,9.865-38.441"/>
				<path style="fill:#3CA89D;" d="M177.256,212.374c0,0-6.205,36.344,5.6,44.875c6.81-8.789-4.238-44.488-4.238-44.488"/>
				<path style="fill:#3CA89D;" d="M248.426,185.83c0,0,11.804,28.678,18.153,49.416c2.244-24.708-14.986-49.416-14.986-49.416"/>
				<g>
					<path style="fill:#FFBB9B;" d="M167.587,199.936c-1.175,1.918-7.619-1.226-7.95-1.384c0.309,0.349,6.444,7.315,3.778,9.724
						c-2.728,2.484-8.092-2.184-8.092-2.184s0.154,1.492,0.118,3.734c-0.069,6.386-1.631,18.849-12.481,20.252
						c-6.116,5.454-29.882,26.009-30.627,26.651l-0.019,0.012l42.931,11.974l1.979,42.328c0,0-3.032-0.341-7.931-1.168
						c-12.906-2.186-38.716-7.737-55.999-19.257c-23.829-15.893-26.596-42.994-24.457-48.506c0.298-0.76,1.652-1.892,3.768-3.262
						c13.158-8.545,55.795-26.678,55.795-26.678s2.09-19.911,5.153-22.752c3.062-2.851,22.639-2.821,25.268-1.899
						C161.461,188.442,168.807,197.964,167.587,199.936z"/>
					<path style="fill:#FFA97F;" d="M151.849,289.625c-0.577,7.343-1.474,14.1-2.555,20.25
						c-12.906-2.186-38.716-7.737-55.999-19.257c-23.829-15.893-26.596-42.994-24.457-48.506c0.298-0.76,1.652-1.892,3.768-3.262
						C73.459,251.185,81.503,293.423,151.849,289.625z"/>
					<path style="fill:#FFA97F;" d="M155.442,209.826c-0.069,6.386-1.631,18.849-12.481,20.252
						c-6.116,5.454-29.882,26.009-30.627,26.651l-0.019,0.012l-11.114-6.369c0,0,33.76-18.701,42.338-26.299
						c8.578-7.598,11.688-14.316,11.688-14.316L155.442,209.826z"/>
					<path style="fill:#FFA97F;" d="M155.324,206.092l-5.38-3.774l-3.934,2.966c0,0,5.581,13.919-0.097,18.404
						C151.821,221.907,156.902,213.047,155.324,206.092z"/>
					<path style="fill:#FFA97F;" d="M159.637,198.552l-5.222-3.676l1.368-1.154l8.843,6.657
						C164.626,200.379,161.57,199.912,159.637,198.552z"/>
					<path style="fill:#FFBB9B;" d="M144.521,187.637c0,0,10.529-4.454,13.344-4.343c2.815,0.111,10.277,4.418,10.954,6.528
						c0.676,2.11-7.851,2.179-7.851,2.179"/>
				</g>
				<path style="fill:#58377F;" d="M316.517,324.816l-22.376,15.282l-11.997,7.182l-4.726-4.282l-10.428-9.432l6.196,68.796
					l0.908,10.113l-125.555-6.729l8.148-84.338l-16.673-6.143l-7.883-3.088c0,0,2.102-9.471,5.269-21.735
					c2.042-7.922,4.538-17.009,7.192-25.464c2.131-0.128,4.262-0.178,6.354-0.148c13.961,0.168,26.994,3.532,35.015,6.127
					c5.111,1.648,8.189,2.989,8.189,2.989s25.583,21.025,59.058-2.309c1.983,0.118,3.907,0.355,5.781,0.7
					c23.905,4.331,39.504,25.721,52.606,44.279C314.268,323.277,316.517,324.816,316.517,324.816z"/>
				<path style="fill:#775DA3;" d="M258.988,272.338c-1.263,2.388-2.506,4.815-3.946,7.005c-2.101,3.207-4.578,6.216-6.926,9.205
					c-1.934,2.447-4.548,4.075-6.551,6.541c-1.529,1.884-3.029,3.769-4.756,5.525c-4.173,4.242-11.089,10.645-17.187,11.642
					c-2.812,0.464-5.15-1.302-7.222-3.325c-3.946-3.858-7.439-8.199-10.833-12.52c-4.41-5.604-7.696-11.001-11.228-17.157
					c-1.391-2.407-3.453-5.337-4.38-8.297c5.111,1.648,8.189,2.989,8.189,2.989s25.583,21.025,59.058-2.309
					C255.19,271.756,257.114,271.993,258.988,272.338z"/>
				<path style="fill:#775DA3;" d="M150.945,264.83l-10.931,50.435l-7.883-3.088c0,0,5.693-25.652,12.461-47.199
					C146.723,264.85,148.854,264.801,150.945,264.83z"/>
				<path style="fill:#775DA3;" d="M316.52,324.813l-34.375,22.468l-4.726-4.282l34.18-26.386
					C314.688,321.441,316.52,324.813,316.52,324.813z"/>
				<path style="opacity:0.2;fill:#5E386C;" d="M148.538,405.747l8.148-84.338l-16.673-6.143l-7.883-3.088
					c0,0,2.102-9.471,5.269-21.735l43.707,8.189c0,0-54.934,111.111,92.08,103.732l0.908,10.113L148.538,405.747z"/>
				<polygon style="opacity:0.2;fill:#5E386C;" points="294.141,340.098 282.144,347.281 277.418,342.999 266.99,333.567 
					263.645,311.043 				"/>
				<path style="fill:#FFBB9B;" d="M290.836,412.959c-2.723,1.855-5.624,3.749-8.692,5.693c-5.732,4.874-17.956,8.939-21.567,7.528
					c-3.522-1.362,5.88-7.528,6.383-7.853c-0.612,0.168-13.941,3.877-15.746,0.987c-1.559-2.486,8.248-6.009,11.444-7.084
					c-3.512,1.056-15.164,4.272-16.022,0.247c-0.957-4.499,12.155-7.922,13.013-8.149c-0.799,0.178-12.175,2.595-11.721-1.49
					c0.345-3.216,24.734-5.564,24.734-5.564l-0.316-3.927l24.626-27.299l-14.829-18.765l34.373-22.465
					c0,0,8.149,14.552,12.806,24.073c1.135,2.309,2.062,4.331,2.614,5.772C335.046,362.721,337.848,381.052,290.836,412.959z"/>
				<polygon style="fill:#FFA97F;" points="293.748,339.696 307.064,353.325 296.969,366.042 282.144,347.281 				"/>
				<path style="fill:#FFA97F;" d="M290.836,412.959c7.814-8.357,14.424-17.611,21.064-27.26
					c6.334-9.195,12.53-18.538,15.805-29.302c0.74-2.407,1.145-4.962,1.618-7.508c1.135,2.309,2.062,4.331,2.614,5.772
					C335.046,362.721,337.848,381.052,290.836,412.959z"/>
				<path style="fill:#FFFFFF;" d="M219.895,288.714c-1.1-0.237-5.3-1.924-4.582,0.935c0.288,1.146,1.831,2.105,2.622,2.905
					c0.76,0.768,1.594,1.553,2.457,2.217c1.187,0.913,3.238,2.504,4.847,2.26c2.486-0.376,0.941-2.784,0.06-3.951
					C224.152,291.564,222.156,289.253,219.895,288.714z"/>
				<path style="fill:#FFFFFF;" d="M217.414,292.144c-0.637,0.928-3.794,4.172-0.876,4.594c1.169,0.169,2.643-0.894,3.683-1.322
					c0.999-0.411,2.042-0.884,2.984-1.43c1.296-0.751,3.546-2.044,3.932-3.624c0.597-2.442-2.218-1.928-3.632-1.556
					C221.668,289.289,218.772,290.257,217.414,292.144z"/>
			</g>
		</g>
		<polygon style="opacity:0.2;fill:#5E386C;" points="197.426,471.281 181.109,471.281 194.149,438.271 185.96,426.463 
			231.489,426.463 221.323,438.271 237.393,471.281 222.475,471.281 214.066,439.741 205.543,439.741 		"/>
		<path style="opacity:0.2;fill:#5E386C;" d="M192.323,331.947c0,0,1.919,43.813,61.84,47.185
			C211.154,370.603,192.323,331.947,192.323,331.947z"/>
	</g>
	<g>
		<path style="fill:#49224A;" d="M465.877,213.779c0,0-6.824-12.687-7.229-38.962c-0.404-26.275,2.62-39.688,12.937-36.56
			c-7.199-15.014,1.467-16.496,13.61-8.363c-3.498-17.517,8.633-23.823,26.113-1.521c19.788-9.63,47.12-0.569,43.423,30.158
			c-3.697,30.727-5.729,56.008-23.635,66.084"/>
		<path style="fill:#FF79AC;" d="M557.454,471.281h-51.519l-6.961-58.32h-5.164l-6.566,58.32c0,0-6.18,0-15.511,0h-38.914
			c-2.06-14.956-2.201-31.286-1.75-44.436c0.104-3.01,0.235-5.86,0.376-8.484c0.583-10.385,1.373-17.28,1.373-17.28
			s90.292-16.038,124.964,0c0.461,4.825,0.771,9.924,0.959,15.088c0.113,3.377,0.188,6.782,0.217,10.15
			C559.165,449.627,557.454,471.281,557.454,471.281z"/>
		<path style="fill:#FFA97F;" d="M380.352,217.517c0,0,3.079-7.77,7.623-6.89c4.544,0.88,0,12.021,0,12.021"/>
		<path style="fill:#FFBB9B;" d="M393.504,237.931l1.768,9.66h-21.926c0.056-0.649,0.104-1.279,0.16-1.881c0-0.038,0-0.057,0-0.057
			c0.546-6.34,0.913-10.394,0.913-10.394l-14.345-13.978c0,0-1.722-21.54,3.555-23.205c2.935-0.912,4.054,10.968,3.96,11.598
			c0.179-0.63,3.377-12.012,5.315-11.579c1.994,0.451,0.715,12.887,0.715,12.887s4.449-8.739,6.048-8.353
			c1.59,0.376-1.496,11.918-1.496,11.918s17.28,7.6,20.581,11.946C402.054,230.838,393.504,237.931,393.504,237.931z"/>
		<path style="fill:#FFA97F;" d="M618.593,217.517c0,0-3.078-7.77-7.623-6.89c-4.544,0.88,0,12.021,0,12.021"/>
		<path style="fill:#FFBB9B;" d="M605.44,237.931l-1.768,9.66h21.926c-0.057-0.649-0.104-1.279-0.16-1.881c0-0.038,0-0.057,0-0.057
			c-0.546-6.34-0.913-10.394-0.913-10.394l14.345-13.978c0,0,1.721-21.54-3.555-23.205c-2.935-0.912-4.054,10.968-3.96,11.598
			c-0.179-0.63-3.377-12.012-5.315-11.579c-1.994,0.451-0.715,12.887-0.715,12.887s-4.449-8.739-6.048-8.353
			c-1.59,0.376,1.496,11.918,1.496,11.918s-17.28,7.6-20.581,11.946C596.89,230.838,605.44,237.931,605.44,237.931z"/>
		<path style="fill:#58377F;" d="M632.027,307.271c0,18.117-9.924,32.922-29.066,28.586c-19.142-4.327-53.917-25.98-53.917-25.98
			l8.739,91.204H432.819l6.518-91.204c0,0-25.651,19.688-37.71,25.98c-12.049,6.302-29.056,7.883-34.023-11.043
			c-3.424-13.056-0.884-45.753,1.016-64.763c0.856-8.541,1.58-14.317,1.58-14.317h28.031l1.599,8.155l4.91,25.068
			c0,0,21.654-29.574,45.602-36.045c3.979-1.072,7.572-1.401,10.629-1.336c6.547,0.132,10.61,2.032,10.61,2.032
			s27.589,9.275,28.492,9.275c21.804-0.32,31.022-8.353,31.022-8.353s3.339-0.48,7.713-0.63c5.117-0.188,11.664,0.075,15.925,2.079
			c16.894,7.93,39.507,42.028,39.507,42.028l5.663-36.468l1.411-9.115l18.803-0.499l7.177-0.188c0,0,0.555,5.55,1.279,13.583
			C629.977,270.756,632.027,295.353,632.027,307.271z"/>
		<path style="fill:#3CA89D;" d="M538.81,243.9c-2.051,12.294-10.404,45.536-41.04,44.558
			c-32.743-1.035-36.393-37.531-36.798-46.881c6.547,0.132,10.61,2.032,10.61,2.032s27.589,9.275,28.492,9.275
			c21.804-0.32,31.022-8.353,31.022-8.353S534.436,244.051,538.81,243.9z"/>
		<path style="fill:#FFBB9B;" d="M513.9,224.859l2.552,19.402l14.644,0.27c0,0-5.171,18.163-28.181,20.235
			c-25.621,2.307-31.33-21.152-31.33-21.152l14.785,1.436l1.969-19.403L513.9,224.859z"/>
		<path style="fill:#FFA97F;" d="M515.675,238.354c0,0-13.808,6.021-28.876,2.465c0.404-3.982,1.097-10.817,1.097-10.817
			l26.226-3.45L515.675,238.354z"/>
		<path style="fill:#FFBB9B;" d="M540.768,197.602c0,0-4.864,26.425-9.672,32.542c-7.13,9.071-59.381,4.925-64.086-3.592
			c-5.184-9.384-2.999-35.882-2.999-35.882s-7.972,3.559-9.574-7.289c-1.031-6.983,2.084-16.968,13.256-7.86
			c7.644-16.639,30.281-32.424,54.275-26.026c7.013,31.235,21.305,34.693,21.305,34.693s6.064-4.97,9.917,0.045
			C557.043,189.249,553.946,208.793,540.768,197.602z"/>
		<path style="fill:#49224A;" d="M511.31,185.138c-0.062,2.041,1.543,3.747,3.584,3.809c2.042,0.062,3.747-1.543,3.809-3.584
			c0.062-2.042-1.543-3.747-3.584-3.809C513.077,181.492,511.372,183.097,511.31,185.138z"/>
		<path style="fill:#49224A;" d="M484.286,184.317c-0.062,2.042,1.543,3.747,3.584,3.809c2.042,0.062,3.747-1.543,3.809-3.584
			c0.062-2.042-1.543-3.747-3.584-3.809C486.054,180.671,484.349,182.275,484.286,184.317z"/>
		<path style="fill:#49224A;" d="M481.376,178.087c-1.053,0-1.935-0.823-1.995-1.888c-0.062-1.103,0.782-2.047,1.885-2.109
			c7.775-0.438,11.622-8.409,11.66-8.489c0.47-0.997,1.659-1.43,2.658-0.961c0.998,0.467,1.431,1.652,0.966,2.652
			c-0.194,0.417-4.864,10.217-15.06,10.792C481.452,178.086,481.414,178.087,481.376,178.087z"/>
		<path style="fill:#49224A;" d="M521.622,174.489c-0.643,0-1.274-0.309-1.661-0.882c-4.427-6.571-9.383-3.491-9.591-3.356
			c-0.929,0.6-2.166,0.33-2.764-0.599c-0.598-0.929-0.33-2.167,0.599-2.764c0.084-0.054,8.483-5.297,15.074,4.484
			c0.617,0.916,0.375,2.159-0.541,2.776C522.395,174.378,522.006,174.489,521.622,174.489z"/>
		<path style="fill:#FF79AC;" d="M530.538,190.774c4.362,3.299,3.256,10.435-2.305,11.592c-3.539,0.736-7.73-1.091-8.24-4.976
			c-0.315-2.398,0.646-5.862,2.778-7.269C524.537,188.955,528.091,189.214,530.538,190.774z"/>
		<path style="fill:#FF79AC;" d="M476.362,189.127c10.676,6.523-2.896,16.429-7.293,8.198c-1.22-2.284-1.324-4.961,0.324-7.106
			C471.596,187.353,473.631,188.418,476.362,189.127z"/>
		<path style="fill:#D6897D;" d="M498.53,199.779c-1.607,0-3.092-0.216-3.523-0.946c-0.184-0.312-0.287-0.834,0.268-1.555
			c12.39-16.117,6.466-23.068,4.236-25.685c-0.179-0.21-0.154-0.526,0.056-0.705c0.21-0.18,0.525-0.155,0.705,0.056
			c3.726,4.372,7.344,11.921-4.204,26.943c-0.19,0.247-0.223,0.396-0.2,0.437c0.332,0.561,3.588,0.6,6.972,0.085
			c0.272-0.04,0.528,0.146,0.569,0.419c0.042,0.273-0.146,0.528-0.419,0.569C502.137,199.528,500.262,199.779,498.53,199.779z"/>
		<path style="fill:#FFFFFF;" d="M501.237,299.108c0-2.046-1.658-3.704-3.704-3.704c-2.046,0-3.704,1.659-3.704,3.704
			c0,2.046,1.659,3.705,3.704,3.705C499.579,302.813,501.237,301.154,501.237,299.108z"/>
		<path style="fill:#FFFFFF;" d="M501.237,313.441c0-2.046-1.658-3.704-3.704-3.704c-2.046,0-3.704,1.659-3.704,3.704
			c0,2.046,1.659,3.705,3.704,3.705C499.579,317.145,501.237,315.487,501.237,313.441z"/>
		<path style="fill:#3CA89D;" d="M399.831,253.89l-23.347,4.609l-7.864,1.552c0.856-8.541,1.58-14.317,1.58-14.317h28.031
			L399.831,253.89z"/>
		<path style="fill:#3CA89D;" d="M628.575,255.32l-7.572-0.997l-21.099-2.784l1.411-9.115l18.803-0.499l7.177-0.188
			C627.296,241.737,627.851,247.287,628.575,255.32z"/>
		<path style="opacity:0.2;fill:#5E386C;" d="M632.027,307.271c0,18.117-9.924,32.922-29.066,28.586
			c-19.142-4.327-53.917-25.98-53.917-25.98l8.739,91.204H432.819l6.518-91.204c0,0-25.651,19.688-37.71,25.98
			c-12.049,6.302-29.056,7.883-34.023-11.043c-3.424-13.056-0.884-45.753,1.016-64.763c0.856-8.541,1.58-14.317,1.58-14.317h6.481
			c-0.094,3.368-0.188,7.77-0.197,12.765c-0.047,23.553,1.731,60.172,13.066,62.562c16.8,3.546,59.345-35.791,59.345-35.791
			s-16.47,111.456,43.693,107.618c60.154-3.838,48.894-101.241,48.894-101.241s62.731,36.732,74.216,27.025
			c7.487-6.321,6.744-40.974,5.305-64.349c-0.282-4.694-0.602-8.936-0.884-12.397l7.177-0.188c0,0,0.555,5.55,1.279,13.583
			C629.977,270.756,632.027,295.353,632.027,307.271z"/>
		<path style="fill:#5E386C;" d="M448.264,417.749l-17.195,9.096c0.104-3.01,0.235-5.86,0.376-8.484l13.696-5.888L448.264,417.749z"
			/>
		<path style="fill:#5E386C;" d="M558.959,426.318l-16.776-9.336l2.271-4.51l14.289,3.697
			C558.855,419.546,558.93,422.951,558.959,426.318z"/>
		<path style="opacity:0.2;fill:#5E386C;" d="M518.831,471.281h-12.896l-6.961-58.32h-5.164l-6.566,58.32c0,0-6.18,0-15.511,0
			l16.16-58.32l-7.092-7.092h34.616l-9.171,7.092L518.831,471.281z"/>
		<path style="fill:#FFA97F;" d="M460.622,174.826c-1.379-0.135-4.214,1.225-4.095,2.866c0.11,1.514,2.575,1.508,2.805,2.839
			c0.255,1.473-1.143,0.732-1.894,1.533c-1.061,1.132-0.222,2.912,0.673,3.809c3.155,3.162,6.485-1.157,6.483-4.394
			C464.593,178.742,463.465,176.232,460.622,174.826z"/>
		<path style="fill:#FFA97F;" d="M548.653,184.977c-4.483,1.171-7.848,8.961-2.902,11.747c1.239,0.698,3.074,0.638,3.789-0.804
			c0.713-1.438-0.38-2.123-1.115-3.163c-1.36-1.924,0.862-1.655,1.567-3.735C550.443,187.692,550.254,185.891,548.653,184.977z"/>
		<path style="fill:#49224A;" d="M510.852,209.806c-0.119,0-0.237-0.042-0.333-0.126c-6.235-5.547-16.406-1.633-16.507-1.592
			c-0.257,0.101-0.547-0.026-0.648-0.282c-0.102-0.257,0.024-0.547,0.281-0.648c0.44-0.174,10.841-4.184,17.54,1.775
			c0.206,0.184,0.225,0.499,0.041,0.706C511.127,209.749,510.989,209.806,510.852,209.806z"/>
	</g>
	<g>
		<path style="fill:#58377F;" d="M1031.544,245.55c0,0-18.681,15.176-38.688-4.709s-31.98-7.908-38.282-24.924
			c-6.302-17.016,22.838-14.166,27.488-29.455c4.65-15.288,14.684-51.871,40.349-45.57c5.434-20.929,40.182-13.399,40.182,5.075
			c21.347-13.524,53.072,8.723,44.074,40.693c-6.42,22.813,9.86,30.633,18.052,39.397c8.192,8.764,11.973,25.854-3.151,29.282
			c-15.124,3.428-27.119-8.06-52.945,3.355C1042.797,270.11,1031.544,245.55,1031.544,245.55z"/>
		<path style="opacity:0.2;fill:#5E386C;" d="M1018.154,179.565c-5.144,12.863-16.383,15.723-27.405,22.272
			c-11.433,6.794-11.399,17.501,0.74,22.329c4.484,1.784,8.503,2.913,11.272,7.117c2.317,3.517,3.314,7.918,4.485,11.904
			c2.892,9.843,5.774,23.397,17.618,25.632c12.656,2.388,18.895-7.75,28.544-13.324c7.267-4.198,15.138-7.748,23.439-9.025
			c7.31-1.124,22.26,0.055,24.866-9.097c1.585-5.565-2.682-12.77-4.954-17.686c-1.809-3.915-3.044-7.84-6.653-10.528
			c-5.635-4.198-13.447-5.857-19.758-8.761c-5.469-2.517-10.133-5.125-14.159-9.704c-4.006-4.555-5.256-8.103-10.508-11.793"/>
		<path style="fill:#FFC673;" d="M1102.288,427.94c-0.56,16.54-2.25,43.34-2.25,43.34h-60.32l-0.4-38.59l-0.21-19.73h-5.65
			l-4.64,19.09l-9.53,39.23c0,0-6.76,0-16.96,0h-39.54c-2.07-14.38-0.85-37.03,0.12-49.84c0.45-5.87,0.84-9.67,0.84-9.67
			s46.611-63.585,138.7,5.96C1102.508,419.99,1102.438,423.61,1102.288,427.94z"/>
		<path style="opacity:0.2;fill:#5E386C;" d="M1102.448,417.73c-74.6-76.75-138.7-5.96-138.7-5.96s-0.39,3.8-0.84,9.67
			c10.761,2.655,31.641,7.224,56.374,9.755l-16.954,40.086c10.201,0,16.956,0,16.956,0l14.178-58.32h5.646l0.609,58.32h14.098
			l-4.438-38.298c17.611,0.237,35.837-1.066,52.911-5.043C1102.438,423.61,1102.508,419.99,1102.448,417.73z"/>
		<path style="fill:#FFBB9B;" d="M1050.543,234.323l-0.636,19.558l14.405,2.647c0,0-8.055,17.081-31.096,15.384
			c-25.655-1.889-27.474-25.965-27.474-25.965l14.355,3.821l5.097-18.825L1050.543,234.323z"/>
		<path style="fill:#FFA97F;" d="M1050.1,247.927c0,0-14.603,3.696-28.892-2.262c1.046-3.864,2.842-10.495,2.842-10.495l26.438,0.86
			L1050.1,247.927z"/>
		<path style="fill:#FFBB9B;" d="M1081.485,211.797c0,0-2.983,9.375-10.683,16.036c-22.841,19.76-49.594,23.654-61.732-8.62
			c-3.774-10.035-2.194-26.735-2.194-26.735s-8.445,2.216-8.261-8.749c0.118-7.058,4.815-16.404,14.358-5.6
			c0,0,16.528-10.094,45.102-20.67c16.284,29.093,28.063,41.51,28.063,41.51s6.792-3.917,9.778,1.657
			C1098.901,206.202,1092.667,224.982,1081.485,211.797z"/>
		<path style="fill:#49224A;" d="M1054.445,194.71c-0.393,2.004,0.913,3.948,2.917,4.341c2.004,0.393,3.948-0.913,4.341-2.917
			s-0.913-3.948-2.917-4.341C1056.782,191.399,1054.838,192.705,1054.445,194.71z"/>
		<path style="fill:#49224A;" d="M1027.915,189.505c-0.393,2.004,0.913,3.948,2.917,4.341c2.004,0.393,3.948-0.913,4.341-2.917
			c0.393-2.004-0.913-3.948-2.917-4.341C1030.251,186.195,1028.308,187.501,1027.915,189.505z"/>
		<path style="fill:#49224A;" d="M1029.63,180.668c-0.42,0-0.837-0.175-1.134-0.518c-0.542-0.626-0.475-1.573,0.152-2.116
			c5.147-4.46,10.989-2.42,13.36-0.716c0.672,0.483,0.826,1.421,0.343,2.094c-0.482,0.671-1.417,0.825-2.089,0.346
			c-0.214-0.151-5.033-3.455-9.65,0.544C1030.327,180.547,1029.978,180.668,1029.63,180.668z"/>
		<path style="fill:#49224A;" d="M1068.279,189.334c-0.618,0-1.197-0.385-1.414-1.001c-0.736-2.083-1.834-3.416-3.264-3.962
			c-2.377-0.907-5.104,0.526-5.13,0.541c-0.727,0.399-1.638,0.133-2.037-0.593c-0.399-0.726-0.133-1.638,0.593-2.037
			c0.16-0.087,3.945-2.126,7.644-0.714c2.289,0.874,3.979,2.813,5.022,5.765c0.276,0.781-0.133,1.638-0.914,1.914
			C1068.613,189.306,1068.445,189.334,1068.279,189.334z"/>
		<path style="fill:#FF79AC;" d="M1072.501,203.397c3.767,3.965,1.516,10.825-4.159,11.063c-3.612,0.151-7.45-2.334-7.321-6.25
			c0.08-2.417,1.591-5.679,3.923-6.721C1066.875,200.626,1070.341,201.46,1072.501,203.397z"/>
		<path style="fill:#FF79AC;" d="M1019.314,192.963c9.473,8.172-5.529,15.74-8.529,6.903c-0.833-2.452-0.5-5.11,1.475-6.959
			C1014.899,190.438,1016.734,191.82,1019.314,192.963z"/>
		<path style="fill:#FFA97F;" d="M1006.108,176.293c-1.339-0.358-4.357,0.523-4.506,2.162c-0.138,1.512,2.295,1.907,2.306,3.258
			c0.012,1.495-1.246,0.536-2.118,1.204c-1.231,0.944-0.692,2.837,0.045,3.867c2.599,3.633,6.586-0.087,7.111-3.281
			C1009.39,180.803,1008.685,178.143,1006.108,176.293z"/>
		<path style="fill:#FFA97F;" d="M1091.318,200.623c-4.614,0.426-9.2,7.566-4.773,11.119c1.109,0.89,2.929,1.13,3.869-0.177
			c0.937-1.303-0.03-2.157-0.586-3.303c-1.029-2.12,1.119-1.492,2.153-3.431C1092.642,203.592,1092.749,201.784,1091.318,200.623z"
			/>
		<path style="fill:#49224A;" d="M1042.1,212.977c-0.205,0-0.398-0.128-0.471-0.332c-0.093-0.26,0.042-0.546,0.302-0.639
			c0.198-0.071,4.892-1.727,8.64-1.087c0.272,0.046,0.455,0.304,0.409,0.577c-0.046,0.272-0.306,0.459-0.577,0.409
			c-3.489-0.59-8.089,1.027-8.135,1.044C1042.213,212.968,1042.156,212.977,1042.1,212.977z"/>
		<path style="fill:#D6897D;" d="M1039.841,208.109c-1.109,0-2.327-0.289-3.482-1.16c-0.748-0.564-1.185-1.379-1.298-2.424
			c-0.666-6.142,10.382-19.1,10.853-19.649c0.18-0.21,0.496-0.233,0.705-0.054c0.21,0.18,0.233,0.495,0.054,0.705
			c-0.112,0.131-11.236,13.176-10.617,18.89c0.083,0.77,0.379,1.336,0.905,1.733c2.818,2.125,6.173,0.065,6.315-0.024
			c0.233-0.148,0.542-0.076,0.689,0.157c0.147,0.233,0.077,0.541-0.156,0.689C1043.701,207.041,1041.972,208.109,1039.841,208.109z"
			/>
		<path style="fill:#FF79AC;" d="M1104.848,416.86c-16.87,6.05-64.38,11.48-116.65,0.95l-2.56-20.08l-8.54,17.61
			c-5.13-1.25-10.28-2.66-15.44-4.24c0,0,1.18-11,4.27-24.7c2.91-12.97,7.53-28.37,14.48-39.17c-4.76-26.44-20.05-57.17-15.76-72.67
			c4.78-17.28,19.29-31.2,35.73-29.66c1.77,0.17,3.56,0.51,5.36,1.05l25.81,18.97l32.76-8.39c0,0,2.88,0.61,7,2.11
			c8.28,3.01,21.57,9.59,26.52,21.95c7.4,18.51-13.08,71.28-13.08,71.28s10.21,14.39,16.21,39.45
			C1102.778,398.89,1104.198,407.44,1104.848,416.86z"/>
		<path style="fill:#3CA89D;" d="M1104.848,416.86c-16.87,6.05-64.38,11.48-116.65,0.95l-2.56-20.08l-8.54,17.61
			c-5.13-1.25-10.28-2.66-15.44-4.24c0,0,1.18-11,4.27-24.7c15.51,4.11,71.3,16.72,135.03,4.92
			C1102.778,398.89,1104.198,407.44,1104.848,416.86z"/>
		<path style="fill:#3CA89D;" d="M1071.308,258.64l-43.46,29.64l-27.47-43.38c1.77,0.17,3.56,0.51,5.36,1.05l25.81,18.97l32.76-8.39
			C1064.308,256.53,1067.188,257.14,1071.308,258.64z"/>
		<path style="opacity:0.2;fill:#5E386C;" d="M988.685,308.235V272.03c0,0,13.359,29.705,38.604,33.398
			c25.244,3.693,55.395-20.25,55.395-20.25l2.065,49.484l-91.629-15.221"/>
		<path style="fill:#FFBB9B;" d="M1042.1,320.831c0,0,13.382-12.281,22.301-6.707c8.919,5.573,9.957,12.088,9.957,12.088h-10.047
			L1042.1,320.831z"/>
		<path style="fill:#FF79AC;" d="M1096.658,359.72c-12,4.07-51.02-9.06-76.92-22.48c-1.51-0.78-2.96-1.56-4.37-2.34
			c2.18-0.86,4.35-1.63,6.51-2.33c0.87-0.28,1.74-0.54,2.61-0.8c21.1-6.28,39.82-5.56,39.82-5.56h12.56c0,0-3.39-48.06,11.73-57.94
			c0,0,13.78,10.21,18.64,32.38c1.04,4.74,1.77,9.61,2.17,14.42C1111.228,336.19,1106.998,356.22,1096.658,359.72z"/>
		<path style="opacity:0.2;fill:#5E386C;" d="M1096.658,359.72c-12,4.07-51.02-9.06-76.92-22.48l2.14-4.67l0.53-1.14l2.08,0.34
			l17.61,2.89c0,0,37.93,20.13,55.66,5.5c6.71-5.54,10.08-15.21,11.65-25.09C1111.228,336.19,1106.998,356.22,1096.658,359.72z"/>
		<path style="fill:#FF79AC;" d="M1064.308,326.21c0,0-16.28,10.95-36.46,14.77c-26.79,5.06-73.091,9.245-76.511-15.965
			c-0.94-6.96-1.01-13.62-0.39-19.88v-0.01c3.09-31.41,27.881-59.575,40.581-59.575c7.77,0-4.85,61.16-4.85,61.16
			s30.31,3.66,46.87,5.34c18.44,1.88,25.94,7.46,28.91,11.02C1063.978,324.91,1064.308,326.21,1064.308,326.21z"/>
		<path style="fill:#FFBB9B;" d="M995.8,299.855c11.227-1.409,24.579,10.779,24.579,10.779l-7.004-0.521
			c0,0-0.685,8.355-3.424,9.177c-2.739,0.822-3.424-5.753-3.424-5.753s-2.192,9.04-5.205,9.177
			c-3.013,0.137-1.918-10.042-1.918-10.042s-3.698,10.866-6.575,10.18c-2.876-0.686-1.096-12.192-1.096-12.192
			s-3.15,9.999-6.164,9.451C982.556,319.563,981.734,301.62,995.8,299.855z"/>
		<path style="opacity:0.2;fill:#5E386C;" d="M1064.308,326.21c0,0-16.28,10.95-36.46,14.77c-26.79,5.06-73.091,9.245-76.511-15.965
			c-0.94-6.96-1.01-13.62-0.39-19.88c1.87,14.86,15.371,34.295,55.691,28.645c33.78-4.74,49.05-8.5,55.82-10.71
			C1063.978,324.91,1064.308,326.21,1064.308,326.21z"/>
		<path style="fill:#FFFFFF;" d="M1004.951,193.916c0-2.149-1.742-3.891-3.891-3.891s-3.891,1.742-3.891,3.891
			c0,2.149,1.742,3.891,3.891,3.891S1004.951,196.066,1004.951,193.916z"/>
		<path style="fill:#FFFFFF;" d="M1090.37,217.357c0-2.149-1.742-3.891-3.891-3.891s-3.891,1.742-3.891,3.891
			c0,2.149,1.742,3.891,3.891,3.891S1090.37,219.507,1090.37,217.357z"/>
		<path style="fill:#58377F;" d="M1054.375,155.353c0,0-3.787,22.02,24.252,26.663c-14.316-4.018-23.318-17.377-16.854-26.663"/>
		<path style="fill:#58377F;" d="M1023.034,356.64c0,2.117-1.716,3.833-3.833,3.833c-2.117,0-3.833-1.716-3.833-3.833
			s1.716-3.833,3.833-3.833C1021.318,352.807,1023.034,354.523,1023.034,356.64z"/>
		<path style="fill:#58377F;" d="M1023.034,379.008c0,2.117-1.716,3.833-3.833,3.833c-2.117,0-3.833-1.716-3.833-3.833
			c0-2.117,1.716-3.833,3.833-3.833C1021.318,375.175,1023.034,376.891,1023.034,379.008z"/>
	</g>
	<g>
		<path style="fill:#49224A;" d="M749.194,214.745c0,0-10.844-8.583-8.133-39.446c2.711-30.863,7.924-41.081,12.303-40.247
			c4.379,0.834,6.256,4.588,6.256,4.588s2.055-6.673,5.928-6.673c3.873,0,5.541,3.962,5.541,3.962s2.919-5.63,6.256-5.422
			c3.336,0.208,3.966,4.379,3.966,4.379s2.081-4.599,6.878-4.802c4.796-0.203,6.143,5.845,6.143,5.845s3.862-5.86,7.931-5.85
			c4.069,0.011,3.563,5.641,3.563,5.641s3.425-5.86,7.596-5.641c4.171,0.219,3.545,6.058,3.545,6.058s3.962-5.213,8.341-5.005
			s23.356,83.413-8.967,98.428"/>
		<polygon style="fill:#58377F;" points="722.565,471.281 778.229,471.281 787.297,420.927 796.487,420.927 805.24,471.281 
			865.499,471.281 854.423,394.42 851.613,379.727 728.174,375.175 726.449,398.935 		"/>
		<path style="fill:#935B64;" d="M814.292,255.132c0,0-8.104,46.289-29.531,48.528c-22.368,2.342-29.531-50.842-29.531-50.842
			l15.586-0.828l0.818-5.954l1.542-11.222h29.085v17.599L814.292,255.132z"/>
		<polygon style="fill:#49224A;" points="758.771,264.924 808.215,269.274 786.281,295.403 		"/>
		<path style="fill:#7E3E50;" d="M802.261,234.814v11.457c-11.457,4.43-24.25,1.684-30.627-0.235l1.542-11.222H802.261z"/>
		<path style="fill:#935B64;" d="M747.865,182.413c-9.267-11.77-16.876-0.996-13.751,9.162c3.457,11.238,10.661,7.266,10.661,7.266
			s-5.215,44.819,41.975,43.084c47.191-1.735,39.045-45.736,39.045-45.736c14.739,11.242,16.116-9.245,12.549-15.011
			c-5.479-8.856-13.133,2.624-13.133,2.624l-2.403-23.725h-72.778L747.865,182.413z"/>
		<path style="fill:#7E3E50;" d="M738.468,181.536c2.443-0.899,5.624,0.731,6.822,2.972c1.1,2.058,1.295,4.984,0.198,7.072
			c-0.809,1.538-2.124,3.116-3.957,3.423c-1.425,0.238-2.84-0.063-3.254-1.561c-0.257-0.93-0.311-2.414,0.363-3.198
			c0.547-0.636,1.422-1.014,2.065-1.552c0.83-0.695,1.37-1.872,1.125-2.958c-0.361-1.599-1.579-0.219-2.682-0.26
			C737.206,185.4,736.765,181.796,738.468,181.536z"/>
		<path style="fill:#7E3E50;" d="M836.039,181.938c-2.054-1.084-3.844-1.462-5.24,0.658c-0.831,1.262-0.785,2.934-0.491,4.337
			c0.468,2.234,0.736,4.986,3.079,6.061c1.859,0.852,4.105-0.37,3.444-2.623c-0.473-1.612-2.476-1.684-3.589-2.676
			c0.882-1.153,2.731-1.281,3.139-2.869C836.701,183.584,836.007,182.537,836.039,181.938z"/>
		<path style="fill:#49224A;" d="M794.334,193.081c0.048,2.189,1.863,3.925,4.052,3.877c2.189-0.048,3.925-1.863,3.877-4.052
			c-0.048-2.189-1.863-3.925-4.052-3.877C796.021,189.077,794.285,190.891,794.334,193.081z"/>
		<path style="fill:#49224A;" d="M765.341,193.66c0.049,2.189,1.863,3.925,4.052,3.877c2.19-0.048,3.925-1.863,3.877-4.052
			c-0.048-2.189-1.863-3.925-4.052-3.877C767.029,189.656,765.293,191.471,765.341,193.66z"/>
		<path style="fill:#FF79AC;" d="M815.733,198.785c4.856,3.287,4.073,10.99-1.816,12.541c-3.748,0.988-8.339-0.734-9.103-4.865
			c-0.472-2.55,0.362-6.313,2.565-7.94C809.205,197.175,813.026,197.253,815.733,198.785z"/>
		<path style="fill:#FF79AC;" d="M760.732,200.907c11.798,6.384-2.176,17.754-7.348,9.188c-1.435-2.377-1.697-5.237-0.053-7.627
			C755.529,199.275,757.768,200.301,760.732,200.907z"/>
		<path style="fill:#49224A;" d="M763.887,182.227c0.096-0.018,0.191-0.046,0.286-0.082l7.947-3.059
			c0.852-0.328,1.277-1.285,0.949-2.137c-0.328-0.852-1.287-1.276-2.137-0.949l-7.947,3.059c-0.852,0.328-1.277,1.285-0.949,2.137
			C762.328,181.954,763.117,182.374,763.887,182.227z"/>
		<path style="fill:#49224A;" d="M795.581,177.088c0.078,0.059,0.162,0.112,0.252,0.158l7.591,3.859
			c0.814,0.414,1.809,0.089,2.223-0.724c0.414-0.814,0.088-1.81-0.724-2.223l-7.591-3.859c-0.814-0.414-1.809-0.089-2.223,0.724
			C794.741,175.746,794.957,176.614,795.581,177.088z"/>
		<polygon style="opacity:0.2;fill:#5E386C;" points="805.24,471.281 822.834,471.281 808.773,419.457 817.603,407.649 
			768.509,407.649 779.471,419.457 762.142,471.281 778.229,471.281 787.297,420.927 796.487,420.927 		"/>
		<path style="fill:#49224A;" d="M779.357,215.245c-0.209,0-0.404-0.132-0.474-0.342c-0.087-0.262,0.054-0.545,0.316-0.632
			c0.079-0.026,7.925-2.627,13.963-3.17c0.268-0.023,0.519,0.178,0.543,0.453c0.025,0.275-0.178,0.518-0.453,0.543
			c-5.921,0.533-13.659,3.097-13.736,3.122C779.463,215.237,779.409,215.245,779.357,215.245z"/>
		<path style="fill:#49224A;" d="M782.327,208.573c-0.104,0-0.208-0.033-0.294-0.096c-0.124-0.09-0.2-0.232-0.206-0.385
			l-1.015-26.789c-0.011-0.276,0.205-0.508,0.48-0.518c0.278-0.019,0.508,0.204,0.518,0.48l0.991,26.154l5.045-1.423
			c0.266-0.075,0.542,0.08,0.617,0.346c0.075,0.266-0.08,0.542-0.346,0.617l-5.657,1.596
			C782.419,208.567,782.373,208.573,782.327,208.573z"/>
		<polygon style="fill:#49224A;" points="781.312,219.354 789.398,217.808 786.697,226.057 		"/>
		<path style="fill:#3CA89D;" d="M858.676,261.885c-3.057-3.17-5.418-5.465-6.669-6.566c-4.835-4.27-18.945-3.151-28.473-1.787
			c-5.343,0.762-9.246,1.599-9.246,1.599l-29.527,34.916l-29.536-37.23c0,0-3.659-1.195-8.842-1.994
			c-7.76-1.195-18.963-1.486-26.394,4.496c-1.599,1.289-3.621,3.142-5.945,5.437c-16.254,16.104-49.928,51.006-49.919,71.916
			c0,16.659,48.244,50.056,48.244,50.056l15.078,2.408l124.089,1.279l16.123-3.499c0,0,42.829-31.366,44.315-51.326
			C913.385,312.619,874.159,277.876,858.676,261.885z M724.438,351.462l-19.236-22.378l19.236-22.378V351.462z M855.243,352.807
			l-8.146-40.476l24.98,17.11L855.243,352.807z"/>
		<path style="fill:#935B64;" d="M733.726,363.126l-21.352,19.599c0,0,21.315,21.89,24.507,20.028
			c3.192-1.862-1.05-9.469-1.05-9.469s10.33,5.227,12.558,2.604c2.228-2.624-9.122-8.343-9.122-8.343s12.477,2.256,13.326-1.128
			c0.833-3.318-12.716-8.565-12.716-8.565s13.086,4.192,12.753,0.387C752.299,374.434,733.726,363.126,733.726,363.126z"/>
		<path style="fill:#935B64;" d="M848.014,362.379l19.645,20.542c0,0-21.265,19.996-24.389,18.023
			c-3.125-1.974,2.586-7.688,2.586-7.688s-11.543,4.204-13.677,1.504c-2.134-2.701,10.446-7.361,10.446-7.361
			s-15.148,3.039-15.133-0.755c0.009-2.363,13.606-8.564,13.606-8.564s-14.075,4.549-13.609,0.759
			C827.955,375.047,848.014,362.379,848.014,362.379z"/>
		<path style="opacity:0.2;fill:#5E386C;" d="M733.722,363.126l-10.657,9.783l-10.695,9.82c0,0-48.244-33.397-48.244-50.056
			c0-2.004,0.282-4.176,0.809-6.462c4.938-21.559,34.417-50.893,49.11-65.454l10.394,45.95l-19.236,22.378l19.236,22.378
			L733.722,363.126z"/>
		<path style="opacity:0.2;fill:#5E386C;" d="M723.065,372.909l-10.695,9.82c0,0-48.244-33.397-48.244-50.056
			c0-2.004,0.282-4.176,0.809-6.462C677.115,347.977,710.855,367.218,723.065,372.909z"/>
		<path style="opacity:0.2;fill:#5E386C;" d="M911.974,331.591c-1.486,19.96-44.315,51.326-44.315,51.326l-7.299-7.638
			l-11.532-12.049l6.415-10.422l16.834-23.365l-24.98-17.11l11.579-50.446c12.934,13.357,44.184,38.74,51.389,58.945
			C911.495,324.819,912.209,328.469,911.974,331.591z"/>
		<path style="opacity:0.2;fill:#5E386C;" d="M911.974,331.591c-1.486,19.96-44.315,51.326-44.315,51.326l-7.299-7.638
			c27.25-13.272,45.359-42.71,49.705-54.449C911.495,324.819,912.209,328.469,911.974,331.591z"/>
		<polygon style="fill:#FFC673;" points="733.722,363.126 712.369,382.729 700.409,379.68 727.566,355.393 		"/>
		<polygon style="fill:#FFC673;" points="848.014,362.379 853.651,355.393 876.654,380.369 867.659,382.917 		"/>
		<path style="opacity:0.2;fill:#5E386C;" d="M740.684,322.851c0,0,22.033,41.645,97.429,31.661
			C792.152,349.159,740.684,322.851,740.684,322.851z"/>
		<path style="fill:#FFC673;" d="M823.534,253.533l-38.18,48.349l-38.971-51.058c5.183,0.8,8.842,1.994,8.842,1.994l29.536,37.23
			l29.527-34.916C814.287,255.132,818.191,254.294,823.534,253.533z"/>
	</g>
	<g>
		<g>
			<g>
				<path style="fill:#775DA3;" d="M645.403,58.697l-6.95-14.515c0,0,24.9-20.342,47.431-8.347
					c22.717,12.094,21.268,39.722,2.968,54.681c-14.838,12.129-36.314,9.376-36.314,9.376l-5.381,21.63l-16.316-3.144l10.688-36.456
					c0,0,24.733,4.993,35.407-6.173C691.236,60.789,671.683,43.796,645.403,58.697z"/>
				<polygon style="fill:#775DA3;" points="628.644,124.294 625.135,135.887 644.021,139.659 646.227,128.609 				"/>
			</g>
			<g>
				<path style="fill:#58377F;" d="M675.209,127.114l2.341-9.554c0,0,19.653,0.037,25.652,14.439
					c6.049,14.521-5.344,27.017-19.791,26.994c-11.714-0.019-20.797-9.644-20.797-9.644l-10.927,8.137l-6.493-7.81l19.181-13.087
					c0,0,9.754,11.947,19.127,10.806C696.06,145.867,693.405,130.257,675.209,127.114z"/>
				<polygon style="fill:#58377F;" points="641.863,151.62 635.711,155.739 643.175,164.842 648.5,160.475 				"/>
			</g>
			<g>
				<path style="fill:#58377F;" d="M594.807,107.898l-7.169-4.67c0,0,5.734-15.71,19.307-16.292
					c13.685-0.587,20.644,12.186,16.432,23.736c-3.415,9.365-13.958,13.812-13.958,13.812l3.513,11.123l-8.3,2.907l-5.185-19.176
					c0,0,12.645-4.304,14.428-12.136C616.265,96.71,602.67,94.263,594.807,107.898z"/>
				<polygon style="fill:#58377F;" points="605.262,141.749 606.86,147.876 616.505,144.571 614.462,139.032 				"/>
			</g>
		</g>
		<g>
			<g>
				<path style="fill:#775DA3;" d="M372.563,131.583l6.95,14.515c0,0-24.9,20.342-47.431,8.348
					c-22.717-12.094-21.268-39.722-2.968-54.681c14.838-12.129,36.314-9.376,36.314-9.376l5.381-21.63l16.316,3.144l-10.688,36.456
					c0,0-24.733-4.993-35.407,6.173C326.73,129.492,346.284,146.485,372.563,131.583z"/>
				<polygon style="fill:#775DA3;" points="389.322,65.987 392.832,54.394 373.945,50.621 371.74,61.671 				"/>
			</g>
			<g>
				<path style="fill:#58377F;" d="M342.758,63.167l-2.341,9.554c0,0-19.653-0.037-25.652-14.439
					c-6.049-14.521,5.344-27.017,19.792-26.994c11.714,0.019,20.797,9.644,20.797,9.644l10.927-8.137l6.493,7.81l-19.181,13.087
					c0,0-9.754-11.947-19.127-10.806C321.907,44.414,324.562,60.024,342.758,63.167z"/>
				<polygon style="fill:#58377F;" points="376.103,38.66 382.255,34.541 374.792,25.438 369.466,29.806 				"/>
			</g>
			<g>
				<path style="fill:#58377F;" d="M423.159,82.382l7.169,4.67c0,0-5.734,15.71-19.307,16.292
					c-13.685,0.587-20.644-12.186-16.432-23.736c3.415-9.365,13.958-13.812,13.958-13.812l-3.513-11.123l8.3-2.907l5.185,19.176
					c0,0-12.645,4.304-14.428,12.136C401.702,93.57,415.297,96.017,423.159,82.382z"/>
				<polygon style="fill:#58377F;" points="412.704,48.532 411.106,42.404 401.461,45.709 403.504,51.248 				"/>
			</g>
		</g>
		<g>
			<path style="fill:#775DA3;" d="M84.216,156.453l2.942,12.169c0,0-22.237,11.454-37.443-1.316
				c-15.332-12.876-9.762-33.666,6.583-42.09c13.252-6.83,29.15-1.264,29.15-1.264l7.592-15.589l11.908,5.03L90.92,139.406
				c0,0-18.014-7.799-27.942-1.027C49.677,147.451,61.809,163.544,84.216,156.453z"/>
			<polygon style="fill:#775DA3;" points="107.575,109.245 112.12,100.991 98.358,95.067 94.893,103.119 			"/>
		</g>
		<g>
			<path style="fill:#58377F;" d="M114.699,75.798l-12.214-2.749c0,0-0.427-25.01,17.755-32.992
				c18.332-8.048,34.509,6.149,34.828,24.534c0.258,14.907-11.77,26.698-11.77,26.698l10.618,13.709l-9.781,8.451l-17.117-24.093
				c0,0,14.967-12.701,13.29-24.601C138.06,48.812,118.259,52.567,114.699,75.798z"/>
			<polygon style="fill:#58377F;" points="146.689,117.641 152.079,125.37 163.483,115.652 157.796,108.981 			"/>
		</g>
		<g>
			<path style="fill:#775DA3;" d="M1175.021,108.685l-7.494-10.029c0,0,15.935-19.281,34.94-13.526
				c19.162,5.803,22.224,27.107,10.514,41.284c-9.495,11.495-26.3,12.634-26.3,12.634l-0.844,17.319l-12.926,0.062l2.657-29.435
				c0,0,19.629,0.08,26.091-10.053C1210.316,103.367,1192.829,93.348,1175.021,108.685z"/>
			<polygon style="fill:#775DA3;" points="1172.127,161.276 1171.198,170.653 1186.181,170.683 1186.197,161.917 			"/>
		</g>
		<g>
			<path style="fill:#58377F;" d="M1149.155,103.436l10.894,6.169c0,0-6.838,24.061-26.553,26.433
				c-19.878,2.391-31.247-15.884-26.226-33.573c4.072-14.342,19.001-22.142,19.001-22.142l-6.191-16.197l11.81-5.254l9.402,28.019
				c0,0-18.005,7.819-19.847,19.695C1118.978,122.496,1139.017,124.639,1149.155,103.436z"/>
			<polygon style="fill:#58377F;" points="1130.66,54.12 1127.741,45.161 1114.011,51.157 1117.52,59.19 			"/>
		</g>
		<g>
			<path style="fill:#775DA3;" d="M961.366,58.577l-2.942-12.169c0,0,22.237-11.454,37.443,1.316
				c15.332,12.876,9.762,33.666-6.582,42.09c-13.252,6.831-29.15,1.264-29.15,1.264l-7.592,15.589l-11.908-5.03l14.027-26.014
				c0,0,18.014,7.799,27.942,1.027C995.906,67.579,983.773,51.486,961.366,58.577z"/>
			<polygon style="fill:#775DA3;" points="938.008,105.784 933.463,114.039 947.225,119.963 950.69,111.911 			"/>
		</g>
		<g>
			<path style="fill:#58377F;" d="M910.883,139.231l12.214,2.749c0,0,0.427,25.01-17.755,32.992
				c-18.333,8.048-34.509-6.149-34.828-24.534c-0.258-14.907,11.77-26.698,11.77-26.698l-10.618-13.708l9.781-8.451l17.117,24.093
				c0,0-14.967,12.701-13.29,24.601C887.521,166.218,907.322,162.462,910.883,139.231z"/>
			<polygon style="fill:#58377F;" points="878.892,97.389 873.503,89.66 862.098,99.378 867.785,106.049 			"/>
		</g>
	</g>
</g>
</svg>
